<svg xmlns="http://www.w3.org/2000/svg" viewBox="0 0 443.5 118.07"><defs><style>.cls-1{fill:#1a2f52;}.cls-2{fill:#e18624;}</style></defs><g id="Layer_2" data-name="Layer 2"><g id="Layer_1-2" data-name="Layer 1"><path class="cls-1" d="M59,88.55h0a29.52,29.52,0,0,1,0-59h0V0h0a59,59,0,0,0,0,118.07h0Z"/><path class="cls-2" d="M59,73.79h0a14.76,14.76,0,1,0,0-29.51h0V29.52h0a29.52,29.52,0,1,1,0,59h0Z"/><circle class="cls-1" cx="59.03" cy="59.03" r="14.76"/><path class="cls-1" d="M135.68,47.49a19,19,0,0,1-6.9-1.23,16.53,16.53,0,0,1-5.53-3.49,15.74,15.74,0,0,1-3.65-5.32,17,17,0,0,1-1.3-6.7,16.91,16.91,0,0,1,1.3-6.69,15.56,15.56,0,0,1,3.67-5.32,16.61,16.61,0,0,1,5.53-3.49,20.11,20.11,0,0,1,14.22.14,14.41,14.41,0,0,1,5.58,4.07l-3.9,3.67a12,12,0,0,0-3.95-2.86,11.84,11.84,0,0,0-4.74-.95,12.78,12.78,0,0,0-4.68.83,10.74,10.74,0,0,0-6.09,6,12.73,12.73,0,0,0,0,9.2A10.8,10.8,0,0,0,127.66,39a10.94,10.94,0,0,0,3.67,2.37,12.57,12.57,0,0,0,4.68.84,11.23,11.23,0,0,0,8.69-3.86l3.9,3.72a14.86,14.86,0,0,1-5.58,4A18.65,18.65,0,0,1,135.68,47.49Z"/><path class="cls-1" d="M160.69,47V18.11l1.44,1.49H150V14.48h27.52V19.6H165.29l1.4-1.49V47Z"/><path class="cls-1" d="M191.79,41.63,177.28,14.48h6.47L195.09,37Zm-10,.28a8.4,8.4,0,0,0,4.51.46,5.72,5.72,0,0,0,3.48-2.83l1.58-2.47.61-.65,11.34-21.94h5.95L195.09,40.75a14.16,14.16,0,0,1-4.09,5,9.9,9.9,0,0,1-5.09,1.93,11.87,11.87,0,0,1-5.65-1.05Z"/><path class="cls-1" d="M209,54l.05-12H245.2V54h-5.58V47h-25V54Zm25.52-9.72V19.6H221.82l-.24,5.76q-.14,3.26-.39,6.16a41.3,41.3,0,0,1-.79,5.28,13.94,13.94,0,0,1-1.47,4,4.61,4.61,0,0,1-2.27,2.09l-6.51-.93a3.42,3.42,0,0,0,2.9-1.21,9.2,9.2,0,0,0,1.79-3.63,32.8,32.8,0,0,0,1-5.46q.33-3.13.46-6.81l.38-10.32H240.5V44.23Z"/><path class="cls-1" d="M256.91,42h18.36V47h-24.4V14.48h23.75v5.07H256.91ZM256.45,28h16.17v5H256.45Z"/><path class="cls-1" d="M288.06,47H282V14.48h6.05Zm17.29-13.94H287.54V27.92h17.81Zm-.47-18.6h6.05V47h-6.05Z"/><path class="cls-1" d="M326.87,47V18.11l1.44,1.49H316.13V14.48h27.52V19.6H331.47l1.4-1.49V47Z"/><path class="cls-1" d="M363.36,47.49a19,19,0,0,1-6.9-1.23,16.53,16.53,0,0,1-5.53-3.49,15.74,15.74,0,0,1-3.65-5.32,17,17,0,0,1-1.3-6.7,16.91,16.91,0,0,1,1.3-6.69A15.56,15.56,0,0,1,351,18.74a16.61,16.61,0,0,1,5.53-3.49,20.14,20.14,0,0,1,14.23.14,14.45,14.45,0,0,1,5.57,4.07l-3.9,3.67a12,12,0,0,0-3.95-2.86,11.84,11.84,0,0,0-4.74-.95,12.78,12.78,0,0,0-4.68.83,10.74,10.74,0,0,0-6.09,6,12.73,12.73,0,0,0,0,9.2A10.8,10.8,0,0,0,355.34,39,10.94,10.94,0,0,0,359,41.35a12.57,12.57,0,0,0,4.68.84,11.23,11.23,0,0,0,8.69-3.86l3.9,3.72a14.9,14.9,0,0,1-5.57,4A18.73,18.73,0,0,1,363.36,47.49Z"/><path class="cls-1" d="M381.91,47V14.48h5.95V47ZM386,33.31V28.1h11v5.21Zm11.81-1.86-5.53-.74,11.11-16.23h6.41ZM403.43,47l-11-15.85,4.88-3,13,18.87Z"/><path class="cls-1" d="M414.45,47V14.48h5.95V37.59l17.47-23.11h5.63V47h-5.95V24L420.07,47Z"/><path class="cls-1" d="M137.1,100.66A29,29,0,0,1,126.66,99a14.16,14.16,0,0,1-6.58-4.86,14.3,14.3,0,0,1,0-15.46,14.11,14.11,0,0,1,6.58-4.83,28.77,28.77,0,0,1,10.44-1.68h1.53A28.41,28.41,0,0,1,149,73.84a13.82,13.82,0,0,1,6.51,4.85,14.48,14.48,0,0,1,0,15.41A13.66,13.66,0,0,1,149.11,99a27.89,27.89,0,0,1-10.25,1.67H137.1Zm.6-4.7h.51a23.86,23.86,0,0,0,7.56-1.11,9.35,9.35,0,0,0,4.6-3.19,8.62,8.62,0,0,0,1.56-5.27,8.52,8.52,0,0,0-1.58-5.26A9.68,9.68,0,0,0,145.74,78a22.49,22.49,0,0,0-7.43-1.07h-.61A24.62,24.62,0,0,0,130,78a9.21,9.21,0,0,0-4.69,3.16,8.74,8.74,0,0,0-1.56,5.32,8.41,8.41,0,0,0,1.65,5.33,9.83,9.83,0,0,0,4.76,3.16A24.26,24.26,0,0,0,137.7,96ZM135,104.05V68.91h5.57v35.14Z"/><path class="cls-1" d="M179.21,103.22a19,19,0,0,1-7-1.26,17.06,17.06,0,0,1-5.58-3.51,15.81,15.81,0,0,1-3.67-5.3,17.76,17.76,0,0,1,0-13.34,15.81,15.81,0,0,1,3.67-5.3A17.06,17.06,0,0,1,172.19,71a20.14,20.14,0,0,1,14,0,17.18,17.18,0,0,1,5.56,3.51,15.81,15.81,0,0,1,3.67,5.3,17.81,17.81,0,0,1,0,13.36,15.42,15.42,0,0,1-3.67,5.3,17.3,17.3,0,0,1-5.56,3.49A18.72,18.72,0,0,1,179.21,103.22Zm0-5.3a12.08,12.08,0,0,0,4.55-.84,10.67,10.67,0,0,0,3.63-2.39,11.29,11.29,0,0,0,2.39-3.63,12.63,12.63,0,0,0,0-9.16,11.25,11.25,0,0,0-2.39-3.62,10.56,10.56,0,0,0-3.63-2.4,12.07,12.07,0,0,0-4.55-.83,12,12,0,0,0-4.54.83,10.81,10.81,0,0,0-3.62,2.4,11,11,0,0,0-2.42,3.62,12.57,12.57,0,0,0,0,9.14A11.27,11.27,0,0,0,171,94.69a10.77,10.77,0,0,0,3.63,2.39A12.09,12.09,0,0,0,179.17,97.92Z"/><path class="cls-1" d="M203.38,102.75V70.21h6v32.54ZM207.52,89V83.83h11V89Zm11.81-1.86-5.53-.75,11.11-16.22h6.41Zm5.58,15.57-11-15.85,4.88-3,13,18.87Z"/><path class="cls-1" d="M246.75,97.36l-14.5-27.15h6.46l11.34,22.5Zm-10,.28a8.42,8.42,0,0,0,4.51.46,5.76,5.76,0,0,0,3.49-2.83l1.58-2.47.6-.65,11.34-21.94h5.95L250.05,96.47a14,14,0,0,1-4.09,5,9.86,9.86,0,0,1-5.09,1.92,11.84,11.84,0,0,1-5.64-1Z"/><path class="cls-1" d="M283,103.22a19,19,0,0,1-6.9-1.24,16.45,16.45,0,0,1-5.53-3.48,15.78,15.78,0,0,1-3.65-5.33,17.86,17.86,0,0,1,0-13.38,15.69,15.69,0,0,1,3.67-5.33A16.75,16.75,0,0,1,276.13,71a20.14,20.14,0,0,1,14.23.14,14.38,14.38,0,0,1,5.57,4.07L292,78.86A11.83,11.83,0,0,0,288.08,76a11.67,11.67,0,0,0-4.74-1,12.57,12.57,0,0,0-4.68.83A10.94,10.94,0,0,0,275,78.25a10.73,10.73,0,0,0-2.41,3.63,12.73,12.73,0,0,0,0,9.2A10.63,10.63,0,0,0,275,94.71a10.94,10.94,0,0,0,3.67,2.37,12.57,12.57,0,0,0,4.68.84A11.32,11.32,0,0,0,292,94.06l3.9,3.72a14.93,14.93,0,0,1-5.57,4A18.73,18.73,0,0,1,283,103.22Z"/></g></g></svg>