<svg width="667" height="667" viewBox="0 0 667 667" fill="none" xmlns="http://www.w3.org/2000/svg">
<path d="M329.083 453.243C263.085 450.409 211.664 395.343 214.094 329.346C216.523 266.588 266.729 216.786 329.083 214.357V94.5085C197.088 94.5085 90.1965 201.4 90.1965 333.395C90.1965 465.39 197.088 572.281 329.083 572.281V453.243Z" fill="#E18624"/>
<path d="M329.085 393.32C361.881 394.13 389.414 368.217 390.223 335.015C391.033 301.814 365.12 274.686 331.919 273.877C330.704 273.877 329.894 273.877 328.68 273.877V213.953C394.677 211.523 450.147 262.945 452.577 328.942C455.006 394.939 403.585 450.41 337.587 452.839C334.753 452.839 331.919 452.839 328.68 452.839V393.32H329.085Z" fill="#E18624"/>
</svg>
